<mxfile host="Electron" agent="Mozilla/5.0 (Windows NT 10.0; Win64; x64) AppleWebKit/537.36 (KHTML, like Gecko) draw.io/26.2.2 Chrome/134.0.6998.178 Electron/35.1.2 Safari/537.36" version="26.2.2">
  <diagram name="Page-1" id="pAOUHIZ48FbA4AjoXg71">
    <mxGraphModel dx="1430" dy="1107" grid="1" gridSize="10" guides="1" tooltips="1" connect="1" arrows="1" fold="1" page="0" pageScale="1" pageWidth="850" pageHeight="1100" background="none" math="0" shadow="0">
      <root>
        <mxCell id="0" />
        <mxCell id="1" parent="0" />
        <mxCell id="JhdC-7hi9hZoy1IBPFO8-2" value="&lt;div style=&quot;text-align: center;&quot;&gt;&lt;span style=&quot;font-size: 27px; background-color: rgb(251, 251, 251);&quot;&gt;&lt;b&gt;Data Flow Diagram&lt;/b&gt;&lt;/span&gt;&lt;/div&gt;" style="text;whiteSpace=wrap;html=1;" parent="1" vertex="1">
          <mxGeometry x="-280" y="-140" width="270" height="50" as="geometry" />
        </mxCell>
        <mxCell id="JhdC-7hi9hZoy1IBPFO8-3" value="" style="rounded=0;whiteSpace=wrap;html=1;strokeColor=light-dark(#635a5a, #ededed);fillColor=none;dashed=1;fontStyle=0" parent="1" vertex="1">
          <mxGeometry x="-260" y="10" width="160" height="490" as="geometry" />
        </mxCell>
        <mxCell id="JhdC-7hi9hZoy1IBPFO8-6" value="&lt;b&gt;&lt;font style=&quot;font-size: 24px;&quot;&gt;Sources&lt;/font&gt;&lt;/b&gt;" style="rounded=0;whiteSpace=wrap;html=1;strokeColor=none;fillColor=default;" parent="1" vertex="1">
          <mxGeometry x="-240" y="-20" width="120" height="60" as="geometry" />
        </mxCell>
        <mxCell id="JhdC-7hi9hZoy1IBPFO8-9" value="" style="rounded=0;whiteSpace=wrap;html=1;strokeColor=light-dark(#635a5a, #ededed);fillColor=none;dashed=1;" parent="1" vertex="1">
          <mxGeometry x="-30" width="590" height="490" as="geometry" />
        </mxCell>
        <mxCell id="JhdC-7hi9hZoy1IBPFO8-10" value="&lt;b&gt;&lt;font style=&quot;font-size: 24px;&quot;&gt;DWH&lt;/font&gt;&lt;/b&gt;" style="rounded=0;whiteSpace=wrap;html=1;strokeColor=default;fillColor=default;dashed=1;" parent="1" vertex="1">
          <mxGeometry x="205" y="-30" width="120" height="60" as="geometry" />
        </mxCell>
        <mxCell id="JhdC-7hi9hZoy1IBPFO8-15" value="" style="rounded=0;whiteSpace=wrap;html=1;strokeColor=light-dark(#635a5a, #ededed);fillColor=light-dark(#d0afaf, #EDEDED);dashed=1;" parent="1" vertex="1">
          <mxGeometry x="-10" y="80" width="130" height="410" as="geometry" />
        </mxCell>
        <mxCell id="JhdC-7hi9hZoy1IBPFO8-16" value="&lt;b&gt;&lt;font style=&quot;font-size: 10px;&quot;&gt;BRONZE LAYER&lt;/font&gt;&lt;/b&gt;" style="rounded=0;whiteSpace=wrap;html=1;strokeColor=default;fillColor=light-dark(#c49797, #ededed);gradientColor=none;" parent="1" vertex="1">
          <mxGeometry x="-10" y="40" width="120" height="30" as="geometry" />
        </mxCell>
        <mxCell id="JhdC-7hi9hZoy1IBPFO8-17" value="" style="rounded=0;whiteSpace=wrap;html=1;strokeColor=light-dark(#635a5a, #ededed);fillColor=light-dark(#ebe5e5, #EDEDED);dashed=1;" parent="1" vertex="1">
          <mxGeometry x="225" y="80" width="120" height="410" as="geometry" />
        </mxCell>
        <mxCell id="JhdC-7hi9hZoy1IBPFO8-18" value="&lt;b&gt;&lt;font style=&quot;font-size: 16px;&quot;&gt;SILVER&lt;/font&gt;&lt;/b&gt;" style="rounded=0;whiteSpace=wrap;html=1;strokeColor=default;fillColor=light-dark(#ebe5e5, #ededed);gradientColor=none;" parent="1" vertex="1">
          <mxGeometry x="222.5" y="40" width="120" height="30" as="geometry" />
        </mxCell>
        <mxCell id="JhdC-7hi9hZoy1IBPFO8-22" value="" style="rounded=0;whiteSpace=wrap;html=1;strokeColor=light-dark(#635a5a, #ededed);fillColor=light-dark(#e4c83f, #EDEDED);dashed=1;" parent="1" vertex="1">
          <mxGeometry x="420" y="80" width="120" height="410" as="geometry" />
        </mxCell>
        <mxCell id="JhdC-7hi9hZoy1IBPFO8-23" value="&lt;b&gt;&lt;font style=&quot;font-size: 16px;&quot;&gt;GOLD&lt;/font&gt;&lt;/b&gt;" style="rounded=0;whiteSpace=wrap;html=1;strokeColor=default;fillColor=light-dark(#e1c53d, #ededed);gradientColor=none;" parent="1" vertex="1">
          <mxGeometry x="420" y="40" width="120" height="30" as="geometry" />
        </mxCell>
        <mxCell id="ww5PUL1a3m5_AclfP4Gx-8" style="edgeStyle=orthogonalEdgeStyle;rounded=0;orthogonalLoop=1;jettySize=auto;html=1;exitX=1;exitY=0.5;exitDx=0;exitDy=0;entryX=0;entryY=0.5;entryDx=0;entryDy=0;" parent="1" source="ww5PUL1a3m5_AclfP4Gx-1" target="ww5PUL1a3m5_AclfP4Gx-5" edge="1">
          <mxGeometry relative="1" as="geometry" />
        </mxCell>
        <mxCell id="ww5PUL1a3m5_AclfP4Gx-9" style="edgeStyle=orthogonalEdgeStyle;rounded=0;orthogonalLoop=1;jettySize=auto;html=1;entryX=0;entryY=0.5;entryDx=0;entryDy=0;" parent="1" source="ww5PUL1a3m5_AclfP4Gx-1" target="ww5PUL1a3m5_AclfP4Gx-6" edge="1">
          <mxGeometry relative="1" as="geometry" />
        </mxCell>
        <mxCell id="ww5PUL1a3m5_AclfP4Gx-10" style="edgeStyle=orthogonalEdgeStyle;rounded=0;orthogonalLoop=1;jettySize=auto;html=1;entryX=0;entryY=0.5;entryDx=0;entryDy=0;" parent="1" source="ww5PUL1a3m5_AclfP4Gx-1" target="ww5PUL1a3m5_AclfP4Gx-7" edge="1">
          <mxGeometry relative="1" as="geometry" />
        </mxCell>
        <mxCell id="ww5PUL1a3m5_AclfP4Gx-1" value="" style="image;html=1;image=img/lib/clip_art/general/Full_Folder_128x128.png" parent="1" vertex="1">
          <mxGeometry x="-218" y="70" width="80" height="80" as="geometry" />
        </mxCell>
        <mxCell id="ww5PUL1a3m5_AclfP4Gx-14" style="edgeStyle=orthogonalEdgeStyle;rounded=0;orthogonalLoop=1;jettySize=auto;html=1;" parent="1" source="ww5PUL1a3m5_AclfP4Gx-2" target="ww5PUL1a3m5_AclfP4Gx-11" edge="1">
          <mxGeometry relative="1" as="geometry" />
        </mxCell>
        <mxCell id="ww5PUL1a3m5_AclfP4Gx-15" style="edgeStyle=orthogonalEdgeStyle;rounded=0;orthogonalLoop=1;jettySize=auto;html=1;" parent="1" source="ww5PUL1a3m5_AclfP4Gx-2" target="ww5PUL1a3m5_AclfP4Gx-12" edge="1">
          <mxGeometry relative="1" as="geometry" />
        </mxCell>
        <mxCell id="ww5PUL1a3m5_AclfP4Gx-19" style="edgeStyle=orthogonalEdgeStyle;rounded=0;orthogonalLoop=1;jettySize=auto;html=1;entryX=0;entryY=0.5;entryDx=0;entryDy=0;" parent="1" source="ww5PUL1a3m5_AclfP4Gx-2" target="ww5PUL1a3m5_AclfP4Gx-13" edge="1">
          <mxGeometry relative="1" as="geometry" />
        </mxCell>
        <mxCell id="ww5PUL1a3m5_AclfP4Gx-2" value="" style="image;html=1;image=img/lib/clip_art/general/Full_Folder_128x128.png" parent="1" vertex="1">
          <mxGeometry x="-218" y="290" width="80" height="80" as="geometry" />
        </mxCell>
        <mxCell id="ww5PUL1a3m5_AclfP4Gx-3" value="&lt;b&gt;CRM&lt;/b&gt;" style="text;html=1;align=center;verticalAlign=middle;whiteSpace=wrap;rounded=0;" parent="1" vertex="1">
          <mxGeometry x="-208" y="150" width="60" height="30" as="geometry" />
        </mxCell>
        <mxCell id="ww5PUL1a3m5_AclfP4Gx-4" value="&lt;b&gt;ERP&lt;/b&gt;" style="text;html=1;align=center;verticalAlign=middle;whiteSpace=wrap;rounded=0;" parent="1" vertex="1">
          <mxGeometry x="-210" y="370" width="60" height="30" as="geometry" />
        </mxCell>
        <mxCell id="8xHjgurZrwTv-GAzGnKs-7" style="edgeStyle=orthogonalEdgeStyle;rounded=0;orthogonalLoop=1;jettySize=auto;html=1;" parent="1" source="ww5PUL1a3m5_AclfP4Gx-5" target="8xHjgurZrwTv-GAzGnKs-1" edge="1">
          <mxGeometry relative="1" as="geometry" />
        </mxCell>
        <mxCell id="ww5PUL1a3m5_AclfP4Gx-5" value="CRM Sales Details" style="text;html=1;align=center;verticalAlign=middle;whiteSpace=wrap;rounded=0;" parent="1" vertex="1">
          <mxGeometry x="5" y="110" width="90" height="30" as="geometry" />
        </mxCell>
        <mxCell id="8xHjgurZrwTv-GAzGnKs-8" style="edgeStyle=orthogonalEdgeStyle;rounded=0;orthogonalLoop=1;jettySize=auto;html=1;entryX=0;entryY=0.5;entryDx=0;entryDy=0;" parent="1" source="ww5PUL1a3m5_AclfP4Gx-6" target="8xHjgurZrwTv-GAzGnKs-2" edge="1">
          <mxGeometry relative="1" as="geometry" />
        </mxCell>
        <mxCell id="ww5PUL1a3m5_AclfP4Gx-6" value="CRM_CUST_Info" style="text;html=1;align=center;verticalAlign=middle;whiteSpace=wrap;rounded=0;" parent="1" vertex="1">
          <mxGeometry x="5" y="170" width="90" height="30" as="geometry" />
        </mxCell>
        <mxCell id="8xHjgurZrwTv-GAzGnKs-9" style="edgeStyle=orthogonalEdgeStyle;rounded=0;orthogonalLoop=1;jettySize=auto;html=1;entryX=0;entryY=0.5;entryDx=0;entryDy=0;" parent="1" source="ww5PUL1a3m5_AclfP4Gx-7" target="8xHjgurZrwTv-GAzGnKs-3" edge="1">
          <mxGeometry relative="1" as="geometry" />
        </mxCell>
        <mxCell id="ww5PUL1a3m5_AclfP4Gx-7" value="CRM_prd_Info" style="text;html=1;align=center;verticalAlign=middle;whiteSpace=wrap;rounded=0;" parent="1" vertex="1">
          <mxGeometry x="5" y="220" width="90" height="30" as="geometry" />
        </mxCell>
        <mxCell id="8xHjgurZrwTv-GAzGnKs-10" style="edgeStyle=orthogonalEdgeStyle;rounded=0;orthogonalLoop=1;jettySize=auto;html=1;" parent="1" source="ww5PUL1a3m5_AclfP4Gx-11" target="8xHjgurZrwTv-GAzGnKs-4" edge="1">
          <mxGeometry relative="1" as="geometry" />
        </mxCell>
        <mxCell id="ww5PUL1a3m5_AclfP4Gx-11" value="ERP_CUST_AZ12" style="text;html=1;align=center;verticalAlign=middle;whiteSpace=wrap;rounded=0;" parent="1" vertex="1">
          <mxGeometry y="290" width="120" height="30" as="geometry" />
        </mxCell>
        <mxCell id="8xHjgurZrwTv-GAzGnKs-11" style="edgeStyle=orthogonalEdgeStyle;rounded=0;orthogonalLoop=1;jettySize=auto;html=1;" parent="1" source="ww5PUL1a3m5_AclfP4Gx-12" target="8xHjgurZrwTv-GAzGnKs-5" edge="1">
          <mxGeometry relative="1" as="geometry" />
        </mxCell>
        <mxCell id="ww5PUL1a3m5_AclfP4Gx-12" value="erp_LOC_A101" style="text;html=1;align=center;verticalAlign=middle;whiteSpace=wrap;rounded=0;" parent="1" vertex="1">
          <mxGeometry x="5" y="340" width="95" height="30" as="geometry" />
        </mxCell>
        <mxCell id="8xHjgurZrwTv-GAzGnKs-12" style="edgeStyle=orthogonalEdgeStyle;rounded=0;orthogonalLoop=1;jettySize=auto;html=1;" parent="1" source="ww5PUL1a3m5_AclfP4Gx-13" target="8xHjgurZrwTv-GAzGnKs-6" edge="1">
          <mxGeometry relative="1" as="geometry" />
        </mxCell>
        <mxCell id="ww5PUL1a3m5_AclfP4Gx-13" value="erp_PX_CAT_G1V2" style="text;html=1;align=center;verticalAlign=middle;whiteSpace=wrap;rounded=0;" parent="1" vertex="1">
          <mxGeometry x="-5" y="390" width="120" height="30" as="geometry" />
        </mxCell>
        <mxCell id="8xHjgurZrwTv-GAzGnKs-1" value="CRM Sales Details" style="text;html=1;align=center;verticalAlign=middle;whiteSpace=wrap;rounded=0;" parent="1" vertex="1">
          <mxGeometry x="237.5" y="110" width="90" height="30" as="geometry" />
        </mxCell>
        <mxCell id="8xHjgurZrwTv-GAzGnKs-2" value="CRM_CUST_Info" style="text;html=1;align=center;verticalAlign=middle;whiteSpace=wrap;rounded=0;" parent="1" vertex="1">
          <mxGeometry x="237.5" y="170" width="90" height="30" as="geometry" />
        </mxCell>
        <mxCell id="8xHjgurZrwTv-GAzGnKs-3" value="CRM_prd_Info" style="text;html=1;align=center;verticalAlign=middle;whiteSpace=wrap;rounded=0;" parent="1" vertex="1">
          <mxGeometry x="237.5" y="220" width="90" height="30" as="geometry" />
        </mxCell>
        <mxCell id="8xHjgurZrwTv-GAzGnKs-4" value="ERP_CUST_AZ12" style="text;html=1;align=center;verticalAlign=middle;whiteSpace=wrap;rounded=0;" parent="1" vertex="1">
          <mxGeometry x="232.5" y="290" width="120" height="30" as="geometry" />
        </mxCell>
        <mxCell id="8xHjgurZrwTv-GAzGnKs-5" value="erp_LOC_A101" style="text;html=1;align=center;verticalAlign=middle;whiteSpace=wrap;rounded=0;" parent="1" vertex="1">
          <mxGeometry x="237.5" y="340" width="95" height="30" as="geometry" />
        </mxCell>
        <mxCell id="8xHjgurZrwTv-GAzGnKs-6" value="erp_PX_CAT_G1V2" style="text;html=1;align=center;verticalAlign=middle;whiteSpace=wrap;rounded=0;" parent="1" vertex="1">
          <mxGeometry x="227.5" y="390" width="120" height="30" as="geometry" />
        </mxCell>
        <mxCell id="-_wEzNVKVBM0D52ulNgG-1" value="Fact_Sales" style="text;html=1;align=center;verticalAlign=middle;whiteSpace=wrap;rounded=0;" parent="1" vertex="1">
          <mxGeometry x="435" y="140" width="90" height="30" as="geometry" />
        </mxCell>
        <mxCell id="-_wEzNVKVBM0D52ulNgG-2" value="Dim_Customers" style="text;html=1;align=center;verticalAlign=middle;whiteSpace=wrap;rounded=0;" parent="1" vertex="1">
          <mxGeometry x="435" y="210" width="90" height="30" as="geometry" />
        </mxCell>
        <mxCell id="-_wEzNVKVBM0D52ulNgG-3" value="Dim_Products" style="text;html=1;align=center;verticalAlign=middle;whiteSpace=wrap;rounded=0;" parent="1" vertex="1">
          <mxGeometry x="435" y="290" width="90" height="30" as="geometry" />
        </mxCell>
        <mxCell id="-_wEzNVKVBM0D52ulNgG-4" style="edgeStyle=orthogonalEdgeStyle;rounded=0;orthogonalLoop=1;jettySize=auto;html=1;exitX=1;exitY=0.5;exitDx=0;exitDy=0;" parent="1" source="8xHjgurZrwTv-GAzGnKs-1" target="-_wEzNVKVBM0D52ulNgG-1" edge="1">
          <mxGeometry relative="1" as="geometry">
            <mxPoint x="420" y="-40" as="sourcePoint" />
            <mxPoint x="563" y="-40" as="targetPoint" />
          </mxGeometry>
        </mxCell>
        <mxCell id="-_wEzNVKVBM0D52ulNgG-5" style="edgeStyle=orthogonalEdgeStyle;rounded=0;orthogonalLoop=1;jettySize=auto;html=1;exitX=0.978;exitY=0.667;exitDx=0;exitDy=0;exitPerimeter=0;entryX=0;entryY=0.5;entryDx=0;entryDy=0;" parent="1" source="8xHjgurZrwTv-GAzGnKs-2" target="-_wEzNVKVBM0D52ulNgG-2" edge="1">
          <mxGeometry relative="1" as="geometry">
            <mxPoint x="325.5" y="180" as="sourcePoint" />
            <mxPoint x="432.5" y="210" as="targetPoint" />
          </mxGeometry>
        </mxCell>
        <mxCell id="-_wEzNVKVBM0D52ulNgG-6" value="" style="endArrow=classic;html=1;rounded=0;exitX=1;exitY=0.5;exitDx=0;exitDy=0;entryX=0;entryY=0.5;entryDx=0;entryDy=0;" parent="1" source="8xHjgurZrwTv-GAzGnKs-3" target="-_wEzNVKVBM0D52ulNgG-3" edge="1">
          <mxGeometry width="50" height="50" relative="1" as="geometry">
            <mxPoint x="345" y="250" as="sourcePoint" />
            <mxPoint x="575" y="570" as="targetPoint" />
          </mxGeometry>
        </mxCell>
        <mxCell id="-_wEzNVKVBM0D52ulNgG-9" value="" style="endArrow=classic;html=1;rounded=0;entryX=0;entryY=0.5;entryDx=0;entryDy=0;exitX=0.593;exitY=0.147;exitDx=0;exitDy=0;exitPerimeter=0;" parent="1" source="8xHjgurZrwTv-GAzGnKs-4" target="-_wEzNVKVBM0D52ulNgG-2" edge="1">
          <mxGeometry width="50" height="50" relative="1" as="geometry">
            <mxPoint x="343" y="295" as="sourcePoint" />
            <mxPoint x="450" y="365" as="targetPoint" />
          </mxGeometry>
        </mxCell>
        <mxCell id="-_wEzNVKVBM0D52ulNgG-10" value="" style="endArrow=classic;html=1;rounded=0;" parent="1" source="8xHjgurZrwTv-GAzGnKs-5" edge="1">
          <mxGeometry width="50" height="50" relative="1" as="geometry">
            <mxPoint x="310.34" y="389" as="sourcePoint" />
            <mxPoint x="430" y="230" as="targetPoint" />
          </mxGeometry>
        </mxCell>
        <mxCell id="-_wEzNVKVBM0D52ulNgG-11" value="" style="endArrow=classic;html=1;rounded=0;entryX=0;entryY=0.75;entryDx=0;entryDy=0;" parent="1" source="8xHjgurZrwTv-GAzGnKs-6" target="-_wEzNVKVBM0D52ulNgG-3" edge="1">
          <mxGeometry width="50" height="50" relative="1" as="geometry">
            <mxPoint x="324.6" y="400" as="sourcePoint" />
            <mxPoint x="452.6" y="290" as="targetPoint" />
          </mxGeometry>
        </mxCell>
      </root>
    </mxGraphModel>
  </diagram>
</mxfile>
